<?xml version="1.0" encoding="UTF-8" standalone="no"?>
<!-- Created with Inkscape (http://www.inkscape.org/) -->

<svg
   xmlns:dc="http://purl.org/dc/elements/1.1/"
   xmlns:cc="http://creativecommons.org/ns#"
   xmlns:rdf="http://www.w3.org/1999/02/22-rdf-syntax-ns#"
   xmlns:svg="http://www.w3.org/2000/svg"
   xmlns="http://www.w3.org/2000/svg"
   xmlns:sodipodi="http://sodipodi.sourceforge.net/DTD/sodipodi-0.dtd"
   xmlns:inkscape="http://www.inkscape.org/namespaces/inkscape"
   id="svg2"
   version="1.1"
   inkscape:version="0.91 r13725"
   xml:space="preserve"
   width="576.25"
   height="431.25"
   viewBox="0 0 576.25 431.25"
   sodipodi:docname="load_time.svg"><metadata
     id="metadata8"><rdf:RDF><cc:Work
         rdf:about=""><dc:format>image/svg+xml</dc:format><dc:type
           rdf:resource="http://purl.org/dc/dcmitype/StillImage" /><dc:title></dc:title></cc:Work></rdf:RDF></metadata><defs
     id="defs6"><clipPath
       clipPathUnits="userSpaceOnUse"
       id="clipPath18"><path
         d="m 6,2 0,3448 4604,0 L 4610,2 6,2 Z"
         id="path20"
         inkscape:connector-curvature="0" /></clipPath><clipPath
       clipPathUnits="userSpaceOnUse"
       id="clipPath30"><path
         d="m 559,416.699 3825,0 0,2868 -3825,0 0,-2868 z"
         id="path32"
         inkscape:connector-curvature="0" /></clipPath><clipPath
       clipPathUnits="userSpaceOnUse"
       id="clipPath40"><path
         d="m 6,2 0,3448 4604,0 L 4610,2 6,2 Z"
         id="path42"
         inkscape:connector-curvature="0" /></clipPath><clipPath
       clipPathUnits="userSpaceOnUse"
       id="clipPath58"><path
         d="m 559,416.699 3825,0 0,2868 -3825,0 0,-2868 z"
         id="path60"
         inkscape:connector-curvature="0" /></clipPath><clipPath
       clipPathUnits="userSpaceOnUse"
       id="clipPath68"><path
         d="m 6,2 0,3448 4604,0 L 4610,2 6,2 Z"
         id="path70"
         inkscape:connector-curvature="0" /></clipPath><clipPath
       clipPathUnits="userSpaceOnUse"
       id="clipPath86"><path
         d="m 559,416.699 3825,0 0,2868 -3825,0 0,-2868 z"
         id="path88"
         inkscape:connector-curvature="0" /></clipPath><clipPath
       clipPathUnits="userSpaceOnUse"
       id="clipPath96"><path
         d="m 6,2 0,3448 4604,0 L 4610,2 6,2 Z"
         id="path98"
         inkscape:connector-curvature="0" /></clipPath><clipPath
       clipPathUnits="userSpaceOnUse"
       id="clipPath114"><path
         d="m 559,416.699 3825,0 0,2868 -3825,0 0,-2868 z"
         id="path116"
         inkscape:connector-curvature="0" /></clipPath><clipPath
       clipPathUnits="userSpaceOnUse"
       id="clipPath124"><path
         d="m 6,2 0,3448 4604,0 L 4610,2 6,2 Z"
         id="path126"
         inkscape:connector-curvature="0" /></clipPath><clipPath
       clipPathUnits="userSpaceOnUse"
       id="clipPath142"><path
         d="m 559,416.699 3825,0 0,2868 -3825,0 0,-2868 z"
         id="path144"
         inkscape:connector-curvature="0" /></clipPath><clipPath
       clipPathUnits="userSpaceOnUse"
       id="clipPath152"><path
         d="m 6,2 0,3448 4604,0 L 4610,2 6,2 Z"
         id="path154"
         inkscape:connector-curvature="0" /></clipPath><clipPath
       clipPathUnits="userSpaceOnUse"
       id="clipPath170"><path
         d="m 559,416.699 3825,0 0,2868 -3825,0 0,-2868 z"
         id="path172"
         inkscape:connector-curvature="0" /></clipPath><clipPath
       clipPathUnits="userSpaceOnUse"
       id="clipPath180"><path
         d="m 6,2 0,3448 4604,0 L 4610,2 6,2 Z"
         id="path182"
         inkscape:connector-curvature="0" /></clipPath><clipPath
       clipPathUnits="userSpaceOnUse"
       id="clipPath202"><path
         d="m 559,416.699 3825,0 0,2868 -3825,0 0,-2868 z"
         id="path204"
         inkscape:connector-curvature="0" /></clipPath><clipPath
       clipPathUnits="userSpaceOnUse"
       id="clipPath212"><path
         d="m 6,2 0,3448 4604,0 L 4610,2 6,2 Z"
         id="path214"
         inkscape:connector-curvature="0" /></clipPath><clipPath
       clipPathUnits="userSpaceOnUse"
       id="clipPath230"><path
         d="m 559,416.699 3825,0 0,2868 -3825,0 0,-2868 z"
         id="path232"
         inkscape:connector-curvature="0" /></clipPath><clipPath
       clipPathUnits="userSpaceOnUse"
       id="clipPath240"><path
         d="m 6,2 0,3448 4604,0 L 4610,2 6,2 Z"
         id="path242"
         inkscape:connector-curvature="0" /></clipPath><clipPath
       clipPathUnits="userSpaceOnUse"
       id="clipPath258"><path
         d="m 559,416.699 3825,0 0,2868 -3825,0 0,-2868 z"
         id="path260"
         inkscape:connector-curvature="0" /></clipPath><clipPath
       clipPathUnits="userSpaceOnUse"
       id="clipPath268"><path
         d="m 6,2 0,3448 4604,0 L 4610,2 6,2 Z"
         id="path270"
         inkscape:connector-curvature="0" /></clipPath><clipPath
       clipPathUnits="userSpaceOnUse"
       id="clipPath286"><path
         d="m 559,416.699 3825,0 0,2868 -3825,0 0,-2868 z"
         id="path288"
         inkscape:connector-curvature="0" /></clipPath><clipPath
       clipPathUnits="userSpaceOnUse"
       id="clipPath296"><path
         d="m 6,2 0,3448 4604,0 L 4610,2 6,2 Z"
         id="path298"
         inkscape:connector-curvature="0" /></clipPath><clipPath
       clipPathUnits="userSpaceOnUse"
       id="clipPath314"><path
         d="m 559,416.699 3825,0 0,2868 -3825,0 0,-2868 z"
         id="path316"
         inkscape:connector-curvature="0" /></clipPath><clipPath
       clipPathUnits="userSpaceOnUse"
       id="clipPath324"><path
         d="m 6,2 0,3448 4604,0 L 4610,2 6,2 Z"
         id="path326"
         inkscape:connector-curvature="0" /></clipPath><clipPath
       clipPathUnits="userSpaceOnUse"
       id="clipPath342"><path
         d="m 559,416.699 3825,0 0,2868 -3825,0 0,-2868 z"
         id="path344"
         inkscape:connector-curvature="0" /></clipPath><clipPath
       clipPathUnits="userSpaceOnUse"
       id="clipPath352"><path
         d="m 6,2 0,3448 4604,0 L 4610,2 6,2 Z"
         id="path354"
         inkscape:connector-curvature="0" /></clipPath><clipPath
       clipPathUnits="userSpaceOnUse"
       id="clipPath374"><path
         d="m 559,416.699 3825,0 0,2868 -3825,0 0,-2868 z"
         id="path376"
         inkscape:connector-curvature="0" /></clipPath><clipPath
       clipPathUnits="userSpaceOnUse"
       id="clipPath388"><path
         d="m 6,2 0,3448 4604,0 L 4610,2 6,2 Z"
         id="path390"
         inkscape:connector-curvature="0" /></clipPath></defs><sodipodi:namedview
     pagecolor="#ffffff"
     bordercolor="#666666"
     borderopacity="1"
     objecttolerance="10"
     gridtolerance="10"
     guidetolerance="10"
     inkscape:pageopacity="0"
     inkscape:pageshadow="2"
     inkscape:window-width="1863"
     inkscape:window-height="1056"
     id="namedview4"
     showgrid="false"
     inkscape:zoom="1.0944928"
     inkscape:cx="171.71898"
     inkscape:cy="212.46049"
     inkscape:window-x="57"
     inkscape:window-y="24"
     inkscape:window-maximized="1"
     inkscape:current-layer="g10" /><g
     id="g10"
     inkscape:groupmode="layer"
     inkscape:label="ink_ext_XXXXXX"
     transform="matrix(1.25,0,0,-1.25,0,431.25)"><g
       id="g12"
       transform="scale(0.1,0.1)"><g
         id="g14"><g
           id="g16"
           clip-path="url(#clipPath18)"><path
             d="m 6,2 4608,0 0,3456 L 6,3458 6,2 Z"
             style="fill:#ffffff;fill-opacity:1;fill-rule:nonzero;stroke:none"
             id="path22"
             inkscape:connector-curvature="0" /><path
             d="m 558.961,416.719 3824.64,0 0,2868.48 -3824.64,0 0,-2868.48 z"
             style="fill:#ffffff;fill-opacity:1;fill-rule:nonzero;stroke:none"
             id="path24"
             inkscape:connector-curvature="0" /></g></g><g
         id="g26"><g
           id="g28"
           clip-path="url(#clipPath30)"><path
             d="m 642.945,416.719 0,2868.481"
             style="fill:none;stroke:#b0b0b0;stroke-width:5;stroke-linecap:square;stroke-linejoin:round;stroke-miterlimit:10;stroke-dasharray:none;stroke-opacity:1"
             id="path34"
             inkscape:connector-curvature="0" /></g></g><g
         id="g36"><g
           id="g38"
           clip-path="url(#clipPath40)"><path
             d="m 642.945,416.719 0,-35"
             style="fill:#000000;fill-opacity:1;fill-rule:nonzero;stroke:none"
             id="path44"
             inkscape:connector-curvature="0" /><path
             d="m 642.945,416.719 0,-35"
             style="fill:none;stroke:#000000;stroke-width:8;stroke-linecap:butt;stroke-linejoin:round;stroke-miterlimit:10;stroke-dasharray:none;stroke-opacity:1"
             id="path46"
             inkscape:connector-curvature="0" /><g
             id="g48"
             transform="scale(10,10)"><text
               transform="matrix(1,0,0,-1,61.1148,27.0781)"
               style="font-variant:normal;font-weight:normal;font-size:10px;font-family:Arial;-inkscape-font-specification:Arial;writing-mode:lr-tb;fill:#000000;fill-opacity:1;fill-rule:nonzero;stroke:none"
               id="text50"><tspan
                 x="0"
                 y="0"
                 id="tspan52">0</tspan></text>
</g></g></g><g
         id="g54"><g
           id="g56"
           clip-path="url(#clipPath58)"><path
             d="m 1345.09,416.719 0,2868.481"
             style="fill:none;stroke:#b0b0b0;stroke-width:5;stroke-linecap:square;stroke-linejoin:round;stroke-miterlimit:10;stroke-dasharray:none;stroke-opacity:1"
             id="path62"
             inkscape:connector-curvature="0" /></g></g><g
         id="g64"><g
           id="g66"
           clip-path="url(#clipPath68)"><path
             d="m 1345.09,416.719 0,-35"
             style="fill:#000000;fill-opacity:1;fill-rule:nonzero;stroke:none"
             id="path72"
             inkscape:connector-curvature="0" /><path
             d="m 1345.09,416.719 0,-35"
             style="fill:none;stroke:#000000;stroke-width:8;stroke-linecap:butt;stroke-linejoin:round;stroke-miterlimit:10;stroke-dasharray:none;stroke-opacity:1"
             id="path74"
             inkscape:connector-curvature="0" /><g
             id="g76"
             transform="scale(10,10)"><text
               transform="matrix(1,0,0,-1,128.149,27.0781)"
               style="font-variant:normal;font-weight:normal;font-size:10px;font-family:Arial;-inkscape-font-specification:Arial;writing-mode:lr-tb;fill:#000000;fill-opacity:1;fill-rule:nonzero;stroke:none"
               id="text78"><tspan
                 x="0 6.3625026"
                 y="0"
                 sodipodi:role="line"
                 id="tspan80">10</tspan></text>
</g></g></g><g
         id="g82"><g
           id="g84"
           clip-path="url(#clipPath86)"><path
             d="m 2047.23,416.719 0,2868.481"
             style="fill:none;stroke:#b0b0b0;stroke-width:5;stroke-linecap:square;stroke-linejoin:round;stroke-miterlimit:10;stroke-dasharray:none;stroke-opacity:1"
             id="path90"
             inkscape:connector-curvature="0" /></g></g><g
         id="g92"><g
           id="g94"
           clip-path="url(#clipPath96)"><path
             d="m 2047.23,416.719 0,-35"
             style="fill:#000000;fill-opacity:1;fill-rule:nonzero;stroke:none"
             id="path100"
             inkscape:connector-curvature="0" /><path
             d="m 2047.23,416.719 0,-35"
             style="fill:none;stroke:#000000;stroke-width:8;stroke-linecap:butt;stroke-linejoin:round;stroke-miterlimit:10;stroke-dasharray:none;stroke-opacity:1"
             id="path102"
             inkscape:connector-curvature="0" /><g
             id="g104"
             transform="scale(10,10)"><text
               transform="matrix(1,0,0,-1,198.363,27.0781)"
               style="font-variant:normal;font-weight:normal;font-size:10px;font-family:Arial;-inkscape-font-specification:Arial;writing-mode:lr-tb;fill:#000000;fill-opacity:1;fill-rule:nonzero;stroke:none"
               id="text106"><tspan
                 x="0 6.3625026"
                 y="0"
                 sodipodi:role="line"
                 id="tspan108">20</tspan></text>
</g></g></g><g
         id="g110"><g
           id="g112"
           clip-path="url(#clipPath114)"><path
             d="m 2749.37,416.719 0,2868.481"
             style="fill:none;stroke:#b0b0b0;stroke-width:5;stroke-linecap:square;stroke-linejoin:round;stroke-miterlimit:10;stroke-dasharray:none;stroke-opacity:1"
             id="path118"
             inkscape:connector-curvature="0" /></g></g><g
         id="g120"><g
           id="g122"
           clip-path="url(#clipPath124)"><path
             d="m 2749.37,416.719 0,-35"
             style="fill:#000000;fill-opacity:1;fill-rule:nonzero;stroke:none"
             id="path128"
             inkscape:connector-curvature="0" /><path
             d="m 2749.37,416.719 0,-35"
             style="fill:none;stroke:#000000;stroke-width:8;stroke-linecap:butt;stroke-linejoin:round;stroke-miterlimit:10;stroke-dasharray:none;stroke-opacity:1"
             id="path130"
             inkscape:connector-curvature="0" /><g
             id="g132"
             transform="scale(10,10)"><text
               transform="matrix(1,0,0,-1,268.577,27.0781)"
               style="font-variant:normal;font-weight:normal;font-size:10px;font-family:Arial;-inkscape-font-specification:Arial;writing-mode:lr-tb;fill:#000000;fill-opacity:1;fill-rule:nonzero;stroke:none"
               id="text134"><tspan
                 x="0 6.3624902"
                 y="0"
                 sodipodi:role="line"
                 id="tspan136">30</tspan></text>
</g></g></g><g
         id="g138"><g
           id="g140"
           clip-path="url(#clipPath142)"><path
             d="m 3451.51,416.719 0,2868.481"
             style="fill:none;stroke:#b0b0b0;stroke-width:5;stroke-linecap:square;stroke-linejoin:round;stroke-miterlimit:10;stroke-dasharray:none;stroke-opacity:1"
             id="path146"
             inkscape:connector-curvature="0" /></g></g><g
         id="g148"><g
           id="g150"
           clip-path="url(#clipPath152)"><path
             d="m 3451.51,416.719 0,-35"
             style="fill:#000000;fill-opacity:1;fill-rule:nonzero;stroke:none"
             id="path156"
             inkscape:connector-curvature="0" /><path
             d="m 3451.51,416.719 0,-35"
             style="fill:none;stroke:#000000;stroke-width:8;stroke-linecap:butt;stroke-linejoin:round;stroke-miterlimit:10;stroke-dasharray:none;stroke-opacity:1"
             id="path158"
             inkscape:connector-curvature="0" /><g
             id="g160"
             transform="scale(10,10)"><text
               transform="matrix(1,0,0,-1,338.791,27.0781)"
               style="font-variant:normal;font-weight:normal;font-size:10px;font-family:Arial;-inkscape-font-specification:Arial;writing-mode:lr-tb;fill:#000000;fill-opacity:1;fill-rule:nonzero;stroke:none"
               id="text162"><tspan
                 x="0 6.3624902"
                 y="0"
                 sodipodi:role="line"
                 id="tspan164">40</tspan></text>
</g></g></g><g
         id="g166"><g
           id="g168"
           clip-path="url(#clipPath170)"><path
             d="m 4153.65,416.719 0,2868.481"
             style="fill:none;stroke:#b0b0b0;stroke-width:5;stroke-linecap:square;stroke-linejoin:round;stroke-miterlimit:10;stroke-dasharray:none;stroke-opacity:1"
             id="path174"
             inkscape:connector-curvature="0" /></g></g><g
         id="g176"><g
           id="g178"
           clip-path="url(#clipPath180)"><path
             d="m 4153.65,416.719 0,-35"
             style="fill:#000000;fill-opacity:1;fill-rule:nonzero;stroke:none"
             id="path184"
             inkscape:connector-curvature="0" /><path
             d="m 4153.65,416.719 0,-35"
             style="fill:none;stroke:#000000;stroke-width:8;stroke-linecap:butt;stroke-linejoin:round;stroke-miterlimit:10;stroke-dasharray:none;stroke-opacity:1"
             id="path186"
             inkscape:connector-curvature="0" /><g
             id="g188"
             transform="scale(10,10)"><text
               transform="matrix(1,0,0,-1,409.005,27.0781)"
               style="font-variant:normal;font-weight:normal;font-size:10px;font-family:Arial;-inkscape-font-specification:Arial;writing-mode:lr-tb;fill:#000000;fill-opacity:1;fill-rule:nonzero;stroke:none"
               id="text190"><tspan
                 x="0 6.3620996"
                 y="0"
                 sodipodi:role="line"
                 id="tspan192">50</tspan></text>
<text
               transform="matrix(1,0,0,-1,216.604,11.875)"
               style="font-variant:normal;font-weight:normal;font-size:12px;font-family:Arial;-inkscape-font-specification:Arial;writing-mode:lr-tb;fill:#000000;fill-opacity:1;fill-rule:nonzero;stroke:none"
               id="text194"><tspan
                 x="0 7.2988214 14.681629 26.371094 33.988285 40.240288 44.054749 48.736385 56.341846"
                 y="0"
                 sodipodi:role="line"
                 id="tspan196">Temps [h]</tspan></text>
</g></g></g><g
         id="g198"><g
           id="g200"
           clip-path="url(#clipPath202)"><path
             d="m 558.961,551.461 3824.639,0"
             style="fill:none;stroke:#b0b0b0;stroke-width:5;stroke-linecap:square;stroke-linejoin:round;stroke-miterlimit:10;stroke-dasharray:none;stroke-opacity:1"
             id="path206"
             inkscape:connector-curvature="0" /></g></g><g
         id="g208"><g
           id="g210"
           clip-path="url(#clipPath212)"><path
             d="m 558.961,551.461 -35,0"
             style="fill:#000000;fill-opacity:1;fill-rule:nonzero;stroke:none"
             id="path216"
             inkscape:connector-curvature="0" /><path
             d="m 558.961,551.461 -35,0"
             style="fill:none;stroke:#000000;stroke-width:8;stroke-linecap:butt;stroke-linejoin:round;stroke-miterlimit:10;stroke-dasharray:none;stroke-opacity:1"
             id="path218"
             inkscape:connector-curvature="0" /><g
             id="g220"
             transform="scale(10,10)"><text
               transform="matrix(1,0,0,-1,42.5367,51.3492)"
               style="font-variant:normal;font-weight:normal;font-size:10px;font-family:Arial;-inkscape-font-specification:Arial;writing-mode:lr-tb;fill:#000000;fill-opacity:1;fill-rule:nonzero;stroke:none"
               id="text222"><tspan
                 x="0"
                 y="0"
                 id="tspan224">0</tspan></text>
</g></g></g><g
         id="g226"><g
           id="g228"
           clip-path="url(#clipPath230)"><path
             d="m 558.961,1092.76 3824.639,0"
             style="fill:none;stroke:#b0b0b0;stroke-width:5;stroke-linecap:square;stroke-linejoin:round;stroke-miterlimit:10;stroke-dasharray:none;stroke-opacity:1"
             id="path234"
             inkscape:connector-curvature="0" /></g></g><g
         id="g236"><g
           id="g238"
           clip-path="url(#clipPath240)"><path
             d="m 558.961,1092.76 -35,0"
             style="fill:#000000;fill-opacity:1;fill-rule:nonzero;stroke:none"
             id="path244"
             inkscape:connector-curvature="0" /><path
             d="m 558.961,1092.76 -35,0"
             style="fill:none;stroke:#000000;stroke-width:8;stroke-linecap:butt;stroke-linejoin:round;stroke-miterlimit:10;stroke-dasharray:none;stroke-opacity:1"
             id="path246"
             inkscape:connector-curvature="0" /><g
             id="g248"
             transform="scale(10,10)"><text
               transform="matrix(1,0,0,-1,29.818,105.479)"
               style="font-variant:normal;font-weight:normal;font-size:10px;font-family:Arial;-inkscape-font-specification:Arial;writing-mode:lr-tb;fill:#000000;fill-opacity:1;fill-rule:nonzero;stroke:none"
               id="text250"><tspan
                 x="0 6.3621087 12.724608"
                 y="0"
                 sodipodi:role="line"
                 id="tspan252">500</tspan></text>
</g></g></g><g
         id="g254"><g
           id="g256"
           clip-path="url(#clipPath258)"><path
             d="m 558.961,1634.07 3824.639,0"
             style="fill:none;stroke:#b0b0b0;stroke-width:5;stroke-linecap:square;stroke-linejoin:round;stroke-miterlimit:10;stroke-dasharray:none;stroke-opacity:1"
             id="path262"
             inkscape:connector-curvature="0" /></g></g><g
         id="g264"><g
           id="g266"
           clip-path="url(#clipPath268)"><path
             d="m 558.961,1634.07 -35,0"
             style="fill:#000000;fill-opacity:1;fill-rule:nonzero;stroke:none"
             id="path272"
             inkscape:connector-curvature="0" /><path
             d="m 558.961,1634.07 -35,0"
             style="fill:none;stroke:#000000;stroke-width:8;stroke-linecap:butt;stroke-linejoin:round;stroke-miterlimit:10;stroke-dasharray:none;stroke-opacity:1"
             id="path274"
             inkscape:connector-curvature="0" /><g
             id="g276"
             transform="scale(10,10)"><text
               transform="matrix(1,0,0,-1,23.4586,159.61)"
               style="font-variant:normal;font-weight:normal;font-size:10px;font-family:Arial;-inkscape-font-specification:Arial;writing-mode:lr-tb;fill:#000000;fill-opacity:1;fill-rule:nonzero;stroke:none"
               id="text278"><tspan
                 x="0 6.3621087 12.724608 19.086718"
                 y="0"
                 sodipodi:role="line"
                 id="tspan280">1000</tspan></text>
</g></g></g><g
         id="g282"><g
           id="g284"
           clip-path="url(#clipPath286)"><path
             d="m 558.961,2175.37 3824.639,0"
             style="fill:none;stroke:#b0b0b0;stroke-width:5;stroke-linecap:square;stroke-linejoin:round;stroke-miterlimit:10;stroke-dasharray:none;stroke-opacity:1"
             id="path290"
             inkscape:connector-curvature="0" /></g></g><g
         id="g292"><g
           id="g294"
           clip-path="url(#clipPath296)"><path
             d="m 558.961,2175.37 -35,0"
             style="fill:#000000;fill-opacity:1;fill-rule:nonzero;stroke:none"
             id="path300"
             inkscape:connector-curvature="0" /><path
             d="m 558.961,2175.37 -35,0"
             style="fill:none;stroke:#000000;stroke-width:8;stroke-linecap:butt;stroke-linejoin:round;stroke-miterlimit:10;stroke-dasharray:none;stroke-opacity:1"
             id="path302"
             inkscape:connector-curvature="0" /><g
             id="g304"
             transform="scale(10,10)"><text
               transform="matrix(1,0,0,-1,23.4586,213.74)"
               style="font-variant:normal;font-weight:normal;font-size:10px;font-family:Arial;-inkscape-font-specification:Arial;writing-mode:lr-tb;fill:#000000;fill-opacity:1;fill-rule:nonzero;stroke:none"
               id="text306"><tspan
                 x="0 6.3621087 12.724608 19.086718"
                 y="0"
                 sodipodi:role="line"
                 id="tspan308">1500</tspan></text>
</g></g></g><g
         id="g310"><g
           id="g312"
           clip-path="url(#clipPath314)"><path
             d="m 558.961,2716.67 3824.639,0"
             style="fill:none;stroke:#b0b0b0;stroke-width:5;stroke-linecap:square;stroke-linejoin:round;stroke-miterlimit:10;stroke-dasharray:none;stroke-opacity:1"
             id="path318"
             inkscape:connector-curvature="0" /></g></g><g
         id="g320"><g
           id="g322"
           clip-path="url(#clipPath324)"><path
             d="m 558.961,2716.67 -35,0"
             style="fill:#000000;fill-opacity:1;fill-rule:nonzero;stroke:none"
             id="path328"
             inkscape:connector-curvature="0" /><path
             d="m 558.961,2716.67 -35,0"
             style="fill:none;stroke:#000000;stroke-width:8;stroke-linecap:butt;stroke-linejoin:round;stroke-miterlimit:10;stroke-dasharray:none;stroke-opacity:1"
             id="path330"
             inkscape:connector-curvature="0" /><g
             id="g332"
             transform="scale(10,10)"><text
               transform="matrix(1,0,0,-1,23.4586,267.87)"
               style="font-variant:normal;font-weight:normal;font-size:10px;font-family:Arial;-inkscape-font-specification:Arial;writing-mode:lr-tb;fill:#000000;fill-opacity:1;fill-rule:nonzero;stroke:none"
               id="text334"><tspan
                 x="0 6.3621087 12.724608 19.086718"
                 y="0"
                 sodipodi:role="line"
                 id="tspan336">2000</tspan></text>
</g></g></g><g
         id="g338"><g
           id="g340"
           clip-path="url(#clipPath342)"><path
             d="m 558.961,3257.98 3824.639,0"
             style="fill:none;stroke:#b0b0b0;stroke-width:5;stroke-linecap:square;stroke-linejoin:round;stroke-miterlimit:10;stroke-dasharray:none;stroke-opacity:1"
             id="path346"
             inkscape:connector-curvature="0" /></g></g><g
         id="g348"><g
           id="g350"
           clip-path="url(#clipPath352)"><path
             d="m 558.961,3257.97 -35,0"
             style="fill:#000000;fill-opacity:1;fill-rule:nonzero;stroke:none"
             id="path356"
             inkscape:connector-curvature="0" /><path
             d="m 558.961,3257.97 -35,0"
             style="fill:none;stroke:#000000;stroke-width:8;stroke-linecap:butt;stroke-linejoin:round;stroke-miterlimit:10;stroke-dasharray:none;stroke-opacity:1"
             id="path358"
             inkscape:connector-curvature="0" /><g
             id="g360"
             transform="scale(10,10)"><text
               transform="matrix(1,0,0,-1,23.4586,322.001)"
               style="font-variant:normal;font-weight:normal;font-size:10px;font-family:Arial;-inkscape-font-specification:Arial;writing-mode:lr-tb;fill:#000000;fill-opacity:1;fill-rule:nonzero;stroke:none"
               id="text362"><tspan
                 x="0 6.3621087 12.724608 19.086718"
                 y="0"
                 sodipodi:role="line"
                 id="tspan364">2500</tspan></text>
<text
               transform="matrix(0,1,1,0,16.9586,152.362)"
               style="font-variant:normal;font-weight:normal;font-size:12px;font-family:Arial;-inkscape-font-specification:Arial;writing-mode:lr-tb;fill:#000000;fill-opacity:1;fill-rule:nonzero;stroke:none"
               id="text366"><tspan
                 x="0 8.3789053 15.984379 23.337889 28.271488 35.88868 43.271488 47.085938 51.767574 60.744133"
                 y="0"
                 sodipodi:role="line"
                 id="tspan368">Charge [N]</tspan></text>
</g></g></g><g
         id="g370"><g
           id="g372"
           clip-path="url(#clipPath374)"><path
             d="m 969.789,547.105 4.168,3.833 2.406,9.058 2.106,17.262 1.281,17.644 1.102,-1.847 0.546,-0.723 0.153,0.074 0.375,18.934 1.687,165.754 0.758,-7.824 0.356,-3.368 2.988,-126.402 0.176,10.395 0.207,2.375 0.484,5.296 0.363,-7.437 2.051,-13.016 0.281,-0.66 0.961,5.281 1.696,-4.437 1.82,-0.625 1.48,-0.332 5.196,0.18 1.55,-1.821 61.36,0.035 93.65,0.454 168.9,1.335 21.05,0.196 3.02,106.937 0.87,24.535 0.53,-11.964 4.78,-16.039 4.43,-4.571 4.54,-2.949 19.14,-6.723 4.26,-1 27.49,-4.66 62.02,-6.004 79.03,-4.972 2.02,97.648 2.07,21.461 1.48,-23.223 2.15,-13.414 3.19,-8.371 4.22,-6.312 8.17,-6.707 7.74,-4.301 11.64,-4.371 19.99,-5.043 16.02,-3.074 22.5,-3.278 15.81,-2.008 28.68,-2.785 16.35,-1.363 62.01,-3.918 0.55,0.074 1.96,114.856 1.92,21.613 0.2,1.875 1.43,-35.668 3.33,-18.008 6.12,-12.457 5.65,-6.269 11.32,-7.836 18.77,-7.852 26.02,-6.848 38.42,-7.074 24.79,-3.734 44.46,-5.676 57.75,-5.433 2.08,137.253 1.95,24.598 0.07,0.703 0.17,-10.23 0.55,-19.168 2.96,-27.965 4.71,-14.781 7.04,-10.985 9.36,-8.41 13.78,-8.238 8.74,-3.567 12.94,-4.304 5.46,-1.496 8.19,-1.895 16.13,-3.351 18.39,-3.122 22.45,-3.019 133.11,-12.25 2.12,154.066 1.91,25.289 2,15.004 1.13,-44.617 1.81,-20.871 2.6,-13.699 6.65,-16.668 6.8,-9.047 8.16,-7.477 31.86,-14.214 31.6,-6.77 81.91,-10.902 78.42,-4.102 29.65,-1.519 2.2,183.851 1.83,27.14 0.94,6.15 2.84,24.39 0.94,-50.59 8.41,-60.172 5.47,-11.367 7.39,-9.563 7.04,-6.226 14.03,-8.434 14.11,-5.746 26.85,-7.047 46.81,-7.441 108.89,-9.445 38.56,-2.071 8.19,-3.597 5.93,0.625 3.73,250.724 2.81,20.87 1.45,11.42 1.67,16.33 0.99,-60.75 6.89,-68.26 7.41,-20.65 7.28,-11.18 5.65,-6.43 5.94,-5.33 15.61,-9.58 8.09,-3.36 3.41,-1.36 10.57,-3.44 7.94,-2.45 9.66,-2.46 22.53,-4.856 28.1,-5.996 112.36,-17.211 28.07,-3.813 7.03,-4.207 9.19,-1.382 2.96,291.495 2.43,16.19 2.62,13.52 0.28,2.77 1.49,9.98 0.54,-49.99 2.71,-68.13 2.34,-21.21 6.41,-29.2 3.96,-10.66 8.36,-15.34 9.02,-11.22 11.64,-10.69 12.13,-8.34 18.92,-10 20.86,-8.29 36.28,-11.15 46.8,-11.73 50.32,-9.56 39.79,-6.21 14.08,-2.52 6.98,-4.36 6.02,-0.61 0,0"
             style="fill:none;stroke:#1f77b4;stroke-width:15;stroke-linecap:square;stroke-linejoin:round;stroke-miterlimit:10;stroke-dasharray:none;stroke-opacity:1"
             id="path378"
             inkscape:connector-curvature="0" /><path
             d="m 864.73,550.188 7.067,41.468 3.519,121.91 1.977,5.024 0.371,0.254 0.43,14.418 1.015,-8.582 0.168,-1.289 0.121,2.285 1.426,2.847 0.039,-0.027 0.532,0.207 0.039,-0.058 1.394,-7.372 2.293,-0.23 0.367,0.68 1.16,3.066 1.821,1.785 1.418,-4.054 3.101,-1.02 2.239,-0.672 1.121,0.281 15.015,0.188 70.434,0.344 52.653,0.687 63.92,0.11 1.42,20.277 2.51,75.344 0.9,-16.016 2.53,-11.266 4.69,-8.484 14.66,-10.781 11.1,-4.246 4.03,-1.168 22.75,-4.844 1.21,-0.164 28.31,-3.77 47.96,-3.582 103.17,-4.781 1.91,115 1.96,40.254 1.75,-36.5 0.57,-4.137 2.98,-12.023 6.45,-11.664 6.29,-6.231 9.22,-5.855 11.56,-4.785 17.77,-5.11 17.76,-3.394 44.52,-5.727 66.26,-4.98 92.85,-3.758 3.43,-2.25 3.15,0.555 2.77,-0.696 14.4,2.371 2.37,155.633 1.58,31.082 1.75,-44.672 3.03,-18.082 5.63,-14.949 8.69,-11.879 7.08,-6.129 13.99,-8.16 21.06,-7.898 21.08,-5.461 42.14,-7.492 63.2,-7.497 124.02,-11.531 53.84,-2.844 19.94,-1.753 7.07,-2.18 1.99,171.315 1.99,55.78 1.71,-51.4 2.92,-22.015 4.35,-15.864 2.74,-6.558 6.48,-10.903 6.99,-8.105 13.92,-11.18 16.58,-8.937 20.99,-8.309 26.92,-7.371 66.77,-14.016 87.7,-13.582 60.93,-7.492 6.95,-2.769 3.42,0.851 2.26,211.05 1.66,43.3 0.71,-39.51 2.57,-38.04 5.8,-28.89 7.22,-17.21 6.78,-10.477 10.22,-11.094 19.03,-13.746 39.34,-17.352 31.78,-9.14 55.27,-12.809 57.42,-8.851 77.77,-8.875 2.45,242.264 1.52,39.47 1.84,-69.79 2.89,-28.84 3.77,-19.11 5.66,-16.93 5.58,-11.15 8.1,-11.34 13.28,-12.27 13.56,-8.61 27.43,-13.54 28.02,-8.584 40.97,-8.07 28.07,-4.477 72.56,-8.086 90.36,-5.07 2.44,260.337 1.92,46.28 1.18,9.38 0.38,1.47 1.85,-88.03 2.83,-34.72 4.4,-25.18 4.03,-13.74 7.62,-16.75 7.05,-10.55 12.84,-13.2 14.05,-10.22 14.06,-7.77 28.07,-10.83 28.13,-7.82 40.94,-7.89 35.09,-5.15 49.15,-5.44 103.04,-9.5 28.03,-3.26 36.85,-3.88 2.35,304.71 2.08,70.32 1.54,11.28 1.09,-77.34 2.53,-49.9 3.9,-32.35 3.96,-18.74 6.64,-20.29 6.95,-14.31 7.01,-10.77 14.08,-15.39 14.02,-11.46 14.03,-8.7 19.9,-10.14 28.14,-10.84 35.07,-10.66 70.23,-16.36 28.05,-4.89 101.08,-15.14 7.76,-1.59 11.33,-3.43 2.38,353.23 1.92,75.61 2.97,23.32 0.56,6.51 2,25.17 1.9,-126.6 2.89,-50.71 0.37,-4.11 6.48,-44.37 7.81,-27.05 8.53,-18.58 8.19,-12.79 15.22,-17.52 16.38,-14.2 16.38,-11 28.15,-14.56 32.35,-13.3 46,-16.09 45.64,-12.74 101.84,-22.63 5.84,-5.34 7.01,-1.73 0.33,-11.18 0,0"
             style="fill:none;stroke:#ff7f0e;stroke-width:15;stroke-linecap:butt;stroke-linejoin:round;stroke-miterlimit:10;stroke-dasharray:55.5, 24;stroke-dashoffset:0;stroke-opacity:1"
             id="path380"
             inkscape:connector-curvature="0" /><path
             d="m 732.809,551.965 0.086,-0.235 0.039,3.805 0.914,-2.305 2.765,3.653 2.821,21.363 1.461,45.281 2.218,182.715 0.539,57.211 0.918,-8.246 2.493,-5.613 0.179,0.152 4.301,310.814 3.102,1.04 0.425,9.89 0.571,-10.04 0.718,0.96 0.192,-0.34 0.566,14.04 0.559,-30.07 0.515,24.03 0.75,-7.8 1.25,-0.36 0.364,0.49 1.48,0.1 1.09,-0.15 1.258,0.31 1.668,0.04 78.289,0.51 0.215,5.87 0.902,-3.84 0.758,-0.09 0.328,9.19 0.547,-10.01 0.234,1.78 2.27,0.61 0.027,-0.36 0.293,-2.47 0.375,3.54 0.379,-0.43 0.414,-0.28 0.82,1.3 0.856,-0.72 0.238,6.83 1.09,59.91 5.547,310.85 0.078,2.06 0.121,-17.77 1.148,-72.84 3.383,-63.8 5.426,-38.9 6.348,-23.83 6.777,-16.49 11.922,-19.34 17.469,-18.75 18.875,-14.71 25.324,-14.22 22.656,-8.93 28.1,-8.31 28.26,-6.48 24.39,-5.99 3.78,-3.84 3.24,1.2 45.25,-4.4 13.18,-1.71 16.84,-1.32 4.53,-2.19 2.61,433.88 2.43,127.64 0.55,12.1 1.23,25.27 0.11,-18.59 1.27,-105.81 2.95,-74.5 7.64,-67.09 8.5,-34.77 8.53,-21.78 8.43,-15.5 8.19,-12.35 15.22,-17.31 16.8,-15.26 15.96,-11.3 16.39,-9.71 24.8,-12.32 39.56,-15.36 70.21,-19.25 19.91,-2.91 16.25,2.5 7.53,-0.62 2.93,571.57 2.09,101.41 1.8,23.55 0.04,-7.31 1.62,-161.02 0.36,-15.94 6.3,-117.54 5.8,-43.55 8.56,-37.42 8.29,-24.2 13.68,-27.26 14.69,-20.59 15.27,-16.35 16.75,-13.23 33.31,-21.73 24.95,-12.63 36.68,-17.42 77.51,-29.58 16.14,-6.04 7.34,-5.49 3.35,-0.79 2.47,612.7 2.16,194.98 1.79,18.48 0.35,2.2 -0.28,-2.28 0.35,0.69 0.33,-74.04 2.96,-194.98 4.32,-86.22 7.21,-68.85 7.52,-42.09 11.83,-42.12 11.76,-29.54 14.22,-26.06 14.21,-20.19 16.77,-19.43 12.04,-10.77 31.49,-22.37 50.27,-26.71 109.59,-48.6 44.3,-14.68 39.99,-6.62 16.36,-2.12 21.05,-4.38 0.22,-0.34 3.18,854.67 2.2,140.09 0.96,1.18 0.14,0.87 0.37,-9.18 0.17,-51.48 1.97,-206.44 6.6,-166.46 8.25,-79.71 8.42,-47.44 6.87,-28.02 8.14,-26.08 8.44,-22.08 7.28,-15.7 16.38,-27.2 16.14,-22.46 8.28,-10.15 29.38,-28.25 31.61,-24.4 58.54,-32.25 59.68,-20.63 32.33,-9.26 67.14,-15.75 71.75,-10.5 48.78,-4.97 32.57,-3.37 30.63,-1.92 16.39,-1.46 30.42,-2.06 47.22,-3 31.4,-1.8 111.33,-5.7 3.69,1090.38 1.8,106.14 0.09,-0.43 1.29,-23.58 1.83,-267.35 0.34,-21.26 6.1,-176.6 8.66,-94.48 8.5,-53.55 7.11,-31.66 8.09,-28.57 14.2,-37.09 16.6,-33.16 15.66,-24.68 15.6,-22.78 20.64,-24.98 14.53,-15.94 30.22,-27.43 20.31,-15.92 22.05,-15.18 106.43,-59.93 25.44,-2.82 24.55,0.09 15.58,-2.91 14.6,-2.5 7.93,-4.59 4.26,-0.74 3.46,1162.23 1.41,108.63 0.28,-3.44 1.72,-48.15 1.7,-301.88 2.95,-154.69 3.84,-95.3 8.69,-109.03 12.28,-80.85 21.45,-79.71 0.56,-1.16 5.13,-14 2.57,-6.16 9.55,-22.02 3.49,-6.79 2.22,-5 0.55,-1.01 1.45,-2.59 2,-4.24 5.32,-10.34 0.74,-1.1 2.22,-4.42 0.58,-0.68 2.96,-5.35 0.56,-0.78 2.79,-5.08 23.68,-35.85 4.22,-5.55 2.41,-3.56 1.29,-1.5 1.49,-1.89 3.13,-4.28 0.91,-0.83 3.26,-4.42 0.92,-0.71 2.23,-2.76 7.05,-8.38 0.18,0.18 0.39,-0.65 1.64,-2.37 0.7,-0.44 4.59,-5.61 0.73,-0.69 3.15,-3.61 6.84,-7.53 0.74,-0.49 2.02,-1.85 3.15,-3.53 10.64,-11.26 1.46,-1.18 0.93,-1.14 14.29,-13.55 2.19,-2.06 1.31,-1.27 2.77,-2.45 1.66,-1.25 1.48,-1.63 1.98,-1.93 14.93,-13.26 0.95,-0.82 2.63,-2.44 0.19,0.24 0.55,-0.82 22.27,-18.22 1.13,-0.85 1.85,-1.71 0.55,-0.16 0.18,-0.52 2.6,-1.84 0.92,-0.47 5.14,-3.94 0.19,0.32 0.16,-0.99 0.37,0.11 5.52,-4.23 0.19,0.32 0.37,-0.69 0.36,-0.07 2.54,-1.88 4.37,-3.18 3.11,-2.07 1.45,-1.38 0.91,-0.62 1.86,-1.13 5.17,-2.21 1.43,-1.07 2.06,-1.41 0.89,-0.02 0.1,-0.24 0.17,-0.31 8.42,-4.66 23.91,-17.81 78.4,-48.24 16.18,-7.93 8.41,-6.24 9.67,-4.29 0,0"
             style="fill:none;stroke:#2ca02c;stroke-width:15;stroke-linecap:butt;stroke-linejoin:round;stroke-miterlimit:10;stroke-dasharray:96, 24, 15, 24;stroke-dashoffset:0;stroke-opacity:1"
             id="path382"
             inkscape:connector-curvature="0" /></g></g><g
         id="g384"><g
           id="g386"
           clip-path="url(#clipPath388)"><path
             d="m 558.961,416.719 0,2868.481"
             style="fill:none;stroke:#000000;stroke-width:8;stroke-linecap:square;stroke-linejoin:miter;stroke-miterlimit:10;stroke-dasharray:none;stroke-opacity:1"
             id="path392"
             inkscape:connector-curvature="0" /><path
             d="m 4383.6,416.719 0,2868.481"
             style="fill:none;stroke:#000000;stroke-width:8;stroke-linecap:square;stroke-linejoin:miter;stroke-miterlimit:10;stroke-dasharray:none;stroke-opacity:1"
             id="path394"
             inkscape:connector-curvature="0" /><path
             d="m 558.961,416.719 3824.639,0"
             style="fill:none;stroke:#000000;stroke-width:8;stroke-linecap:square;stroke-linejoin:miter;stroke-miterlimit:10;stroke-dasharray:none;stroke-opacity:1"
             id="path396"
             inkscape:connector-curvature="0" /><path
             d="m 558.961,3285.2 3824.639,0"
             style="fill:none;stroke:#000000;stroke-width:8;stroke-linecap:square;stroke-linejoin:miter;stroke-miterlimit:10;stroke-dasharray:none;stroke-opacity:1"
             id="path398"
             inkscape:connector-curvature="0" /><path
             d="m 642.961,2660.45 748.059,0 c 16,0 24,8 24,24 l 0,516.75 c 0,16 -8,24 -24,24 l -748.059,0 c -16,0 -24,-8 -24,-24 l 0,-516.75 c 0,-16 8,-24 24,-24"
             style="fill:#ffffff;fill-opacity:1;fill-rule:nonzero;stroke:none"
             id="path400"
             inkscape:connector-curvature="0" /><path
             d="m 642.961,2660.45 748.059,0 c 16,0 24,8 24,24 l 0,516.75 c 0,16 -8,24 -24,24 l -748.059,0 c -16,0 -24,-8 -24,-24 l 0,-516.75 c 0,-16 8,-24 24,-24 z"
             style="fill:none;stroke:#cccccc;stroke-width:10;stroke-linecap:butt;stroke-linejoin:miter;stroke-miterlimit:10;stroke-dasharray:none;stroke-opacity:1"
             id="path402"
             inkscape:connector-curvature="0" /><path
             d="m 666.961,3127.95 240,0"
             style="fill:none;stroke:#1f77b4;stroke-width:15;stroke-linecap:square;stroke-linejoin:round;stroke-miterlimit:10;stroke-dasharray:none;stroke-opacity:1"
             id="path404"
             inkscape:connector-curvature="0" /><g
             id="g406"
             transform="scale(10,10)"><text
               transform="matrix(1,0,0,-1,100.296,308.595)"
               style="font-variant:normal;font-weight:normal;font-size:12px;font-family:Arial;-inkscape-font-specification:Arial;writing-mode:lr-tb;fill:#000000;fill-opacity:1;fill-rule:nonzero;stroke:none"
               id="text408"><tspan
                 x="0 7.6347709 11.449221 21.802742 29.038742"
                 y="0"
                 sodipodi:role="line"
                 id="tspan410">1 MPa</tspan></text>
</g><path
             d="m 666.961,2951.7 240,0"
             style="fill:none;stroke:#ff7f0e;stroke-width:15;stroke-linecap:butt;stroke-linejoin:round;stroke-miterlimit:10;stroke-dasharray:55.5, 24;stroke-dashoffset:0;stroke-opacity:1"
             id="path412"
             inkscape:connector-curvature="0" /><g
             id="g414"
             transform="scale(10,10)"><text
               transform="matrix(1,0,0,-1,100.296,290.97)"
               style="font-variant:normal;font-weight:normal;font-size:12px;font-family:Arial;-inkscape-font-specification:Arial;writing-mode:lr-tb;fill:#000000;fill-opacity:1;fill-rule:nonzero;stroke:none"
               id="text416"><tspan
                 x="0 7.6347709 11.449221 21.802742 29.038742"
                 y="0"
                 sodipodi:role="line"
                 id="tspan418">2 MPa</tspan></text>
</g><path
             d="m 666.961,2775.45 240,0"
             style="fill:none;stroke:#2ca02c;stroke-width:15;stroke-linecap:butt;stroke-linejoin:round;stroke-miterlimit:10;stroke-dasharray:96, 24, 15, 24;stroke-dashoffset:0;stroke-opacity:1"
             id="path420"
             inkscape:connector-curvature="0" /><g
             id="g422"
             transform="scale(10,10)"><text
               transform="matrix(1,0,0,-1,100.296,273.345)"
               style="font-variant:normal;font-weight:normal;font-size:12px;font-family:Arial;-inkscape-font-specification:Arial;writing-mode:lr-tb;fill:#000000;fill-opacity:1;fill-rule:nonzero;stroke:none"
               id="text424"><tspan
                 x="0 7.6347709 11.449221 21.802742 29.038742"
                 y="0"
                 sodipodi:role="line"
                 id="tspan426">7 MPa</tspan></text>
</g></g></g></g><rect
       style="opacity:0.97000002;fill:#0000ff;fill-opacity:0.29411766;fill-rule:nonzero;stroke:none;stroke-width:1;stroke-linejoin:round;stroke-miterlimit:4;stroke-dasharray:none;stroke-dashoffset:0;stroke-opacity:0"
       id="rect4554"
       width="12.425848"
       height="12.790401"
       x="83.734177"
       y="-54.861359"
       transform="scale(1,-1)" /><rect
       style="opacity:0.97000002;fill:#0000ff;fill-opacity:0.29411766;fill-rule:nonzero;stroke:none;stroke-width:1;stroke-linejoin:round;stroke-miterlimit:4;stroke-dasharray:none;stroke-dashoffset:0;stroke-opacity:0"
       id="rect4554-3"
       width="12.425848"
       height="21.750401"
       x="121.6072"
       y="-63.821381"
       transform="scale(1,-1)" /><rect
       style="opacity:0.97000002;fill:#0000ff;fill-opacity:0.29411766;fill-rule:nonzero;stroke:none;stroke-width:1;stroke-linejoin:round;stroke-miterlimit:4;stroke-dasharray:none;stroke-dashoffset:0;stroke-opacity:0"
       id="rect4554-6"
       width="12.425848"
       height="29.350401"
       x="142.588"
       y="-71.421478"
       transform="scale(1,-1)" /><rect
       style="opacity:0.97000002;fill:#0000ff;fill-opacity:0.29411766;fill-rule:nonzero;stroke:none;stroke-width:1;stroke-linejoin:round;stroke-miterlimit:4;stroke-dasharray:none;stroke-dashoffset:0;stroke-opacity:0"
       id="rect4554-7"
       width="12.425848"
       height="32.870399"
       x="165.01759"
       y="-74.941414"
       transform="scale(1,-1)" /><rect
       style="opacity:0.97000002;fill:#0000ff;fill-opacity:0.29411766;fill-rule:nonzero;stroke:none;stroke-width:1;stroke-linejoin:round;stroke-miterlimit:4;stroke-dasharray:none;stroke-dashoffset:0;stroke-opacity:0"
       id="rect4554-5"
       width="12.425848"
       height="34.950401"
       x="189.22079"
       y="-77.021423"
       transform="scale(1,-1)" /><rect
       style="opacity:0.97000002;fill:#0000ff;fill-opacity:0.29411766;fill-rule:nonzero;stroke:none;stroke-width:1;stroke-linejoin:round;stroke-miterlimit:4;stroke-dasharray:none;stroke-dashoffset:0;stroke-opacity:0"
       id="rect4554-35"
       width="12.425848"
       height="37.9104"
       x="216.0576"
       y="-79.98143"
       transform="scale(1,-1)" /><rect
       style="opacity:0.97000002;fill:#0000ff;fill-opacity:0.29411766;fill-rule:nonzero;stroke:none;stroke-width:1;stroke-linejoin:round;stroke-miterlimit:4;stroke-dasharray:none;stroke-dashoffset:0;stroke-opacity:0"
       id="rect4554-62"
       width="12.425848"
       height="41.750401"
       x="244.6008"
       y="-83.821442"
       transform="scale(1,-1)" /><rect
       style="opacity:0.97000002;fill:#0000ff;fill-opacity:0.29411766;fill-rule:nonzero;stroke:none;stroke-width:1;stroke-linejoin:round;stroke-miterlimit:4;stroke-dasharray:none;stroke-dashoffset:0;stroke-opacity:0"
       id="rect4554-9"
       width="12.425848"
       height="48.470402"
       x="274.84161"
       y="-90.541451"
       transform="scale(1,-1)" /><rect
       style="opacity:0.97000002;fill:#0000ff;fill-opacity:0.29411766;fill-rule:nonzero;stroke:none;stroke-width:1;stroke-linejoin:round;stroke-miterlimit:4;stroke-dasharray:none;stroke-dashoffset:0;stroke-opacity:0"
       id="rect4554-1"
       width="12.425848"
       height="55.750401"
       x="305.17841"
       y="-97.821465"
       transform="scale(1,-1)" /><rect
       style="opacity:0.97000002;fill:#0000ff;fill-opacity:0.29411766;fill-rule:nonzero;stroke:none;stroke-width:1;stroke-linejoin:round;stroke-miterlimit:4;stroke-dasharray:none;stroke-dashoffset:0;stroke-opacity:0"
       id="rect4554-2"
       width="12.425848"
       height="59.830399"
       x="335.13242"
       y="-101.76764"
       transform="scale(1,-1)" /></g></svg>